<svg id="Layer_1" data-name="Layer 1" xmlns="http://www.w3.org/2000/svg" viewBox="0 0 115.03 115.03"><defs><style>.cls-1{fill:#3e5970;}.cls-2{fill:#1b3240;}.cls-3{fill:#fff;}.cls-4{fill:#afcae1;}.cls-5{fill:#e97e24;}.cls-6{fill:#27506c;}.cls-7{fill:#a9d5e1;}.cls-8{fill:#88b4c5;}.cls-9{fill:#eaece0;}.cls-10{fill:#60afba;}.cls-11{fill:#ebddbb;}.cls-12{fill:#f09b32;}.cls-13{fill:#33669a;}.cls-14{fill:#1c3664;}</style></defs><title>icon_doc</title><circle class="cls-1" cx="57.52" cy="57.52" r="57.52"/><path class="cls-2" d="M35.07,87.15l30.18,27A57.32,57.32,0,0,0,115,57.36c0-.29,0-.57,0-.86L78.43,27.74Z" transform="translate(0)"/><polygon class="cls-3" points="36.34 87.15 80.06 86.89 79.7 27.74 43.73 27.96 36.02 35.55 36.34 87.15"/><rect class="cls-4" x="59.36" y="49.21" width="13.65" height="1.42" transform="translate(132.67 99.44) rotate(179.65)"/><rect class="cls-4" x="59.38" y="52.76" width="13.65" height="1.42" transform="translate(132.73 106.54) rotate(179.65)"/><rect class="cls-4" x="59.4" y="56.64" width="13.65" height="1.42" transform="translate(132.8 114.3) rotate(179.65)"/><rect class="cls-4" x="63.19" y="60.29" width="9.42" height="1.42" transform="translate(136.16 121.59) rotate(179.65)"/><rect class="cls-4" x="42" y="49.26" width="13.65" height="1.42" transform="translate(97.94 99.65) rotate(179.65)"/><rect class="cls-4" x="42.02" y="52.81" width="13.65" height="1.42" transform="translate(98.01 106.74) rotate(179.65)"/><rect class="cls-4" x="42.04" y="56.69" width="13.65" height="1.42" transform="translate(98.08 114.51) rotate(179.65)"/><rect class="cls-4" x="42.11" y="68.29" width="6" height="1.42" transform="translate(90.64 137.72) rotate(179.65)"/><rect class="cls-4" x="49.78" y="68.24" width="6" height="8.24" transform="translate(106 144.4) rotate(179.65)"/><rect class="cls-4" x="42.13" y="71.69" width="6" height="1.42" transform="translate(90.71 144.53) rotate(179.65)"/><rect class="cls-4" x="42.15" y="75.11" width="6" height="1.42" transform="translate(90.77 151.36) rotate(179.65)"/><rect class="cls-4" x="42.17" y="78.34" width="13.65" height="1.42" transform="translate(98.47 157.8) rotate(179.65)"/><rect class="cls-4" x="42.06" y="60.39" width="13.65" height="1.42" transform="translate(98.15 121.91) rotate(179.65)"/><rect class="cls-4" x="42.09" y="64.27" width="13.65" height="1.42" transform="matrix(-1, 0.01, -0.01, -1, 98.22, 129.68)"/><rect class="cls-4" x="48.77" y="39.27" width="24.19" height="4.33" transform="translate(121.98 82.5) rotate(179.65)"/><polygon class="cls-5" points="36.02 35.4 43.77 35.36 43.73 27.96 36.02 35.4"/><path class="cls-4" d="M67.35,65.82a7.39,7.39,0,1,0,7.39,7.39A7.39,7.39,0,0,0,67.35,65.82Zm0,11.12a3.74,3.74,0,1,1,3.73-3.73A3.73,3.73,0,0,1,67.35,76.94Z" transform="translate(0)"/><path class="cls-4" d="M74.79,73.13a7.43,7.43,0,0,0-7.43-7.27h0v3.68h0a3.76,3.76,0,0,1,3.75,3.58H71a3.73,3.73,0,0,1-1.3,2.68l2.61,2.6a7.43,7.43,0,0,0,2.38-5.27Z" transform="translate(0)"/><path class="cls-6" d="M70.27,66.21a7.45,7.45,0,0,0-9.58,4.06v0l3.39,1.42s0,0,0,0a3.76,3.76,0,0,1,4.75-2.09l0,.06a3.77,3.77,0,0,1,2,2.24l3.41-1.4a7.44,7.44,0,0,0-4-4.23Z" transform="translate(0)"/><path class="cls-5" d="M63.42,66.57A7.44,7.44,0,0,0,61,76.67l0,0,3.16-1.88s0,0,0,0a3.75,3.75,0,0,1,1.16-5.05l0,.06a3.73,3.73,0,0,1,3-.25L69.21,66a7.43,7.43,0,0,0-5.75.65Z" transform="translate(0)"/><circle class="cls-7" cx="57.52" cy="57.52" r="57.52"/><path class="cls-8" d="M79.16,35.71,57,45,53.23,68.35,41.12,79.49l39.38,31C99,104.18,112.82,84.89,115,64.82Z" transform="translate(0)"/><path class="cls-9" d="M90,39.38c2.7-2.76,1.59-8.22-2.47-12.19h0c-4.07-4-9.55-5-12.25-2.19L60,40.56c-2.7,2.76-1.59,8.21,2.47,12.18h0c4.07,4,9.55,5,12.24,2.2Z" transform="translate(0)"/><polygon class="cls-10" points="51.27 79.49 36.55 65.11 68.09 32.32 82.8 46.7 51.27 79.49"/><polygon class="cls-11" points="51.27 79.49 36.55 65.11 30.45 80.72 35.8 85.95 51.27 79.49"/><polygon class="cls-1" points="35.8 85.95 30.45 80.72 26.96 89.64 35.8 85.95"/><rect class="cls-12" x="69.62" y="31.68" width="6.86" height="20.58" transform="translate(-8.02 64.88) rotate(-45.66)"/><circle class="cls-13" cx="57.52" cy="57.52" r="57.52"/><path class="cls-14" d="M36.41,84.8l27.24,29.88a58.61,58.61,0,0,0,50.9-58.1c0-.29,0-.59,0-.88L73.34,29.94,60.42,61.79Z" transform="translate(0)"/><polygon class="cls-3" points="36.41 84.8 80.13 84.54 79.77 25.39 43.8 25.61 36.1 33.2 36.41 84.8"/><rect class="cls-4" x="42.07" y="46.86" width="31.22" height="1.42" transform="translate(115.65 94.78) rotate(179.65)"/><rect class="cls-4" x="42.09" y="50.4" width="31.22" height="1.42" transform="translate(115.72 101.88) rotate(179.65)"/><rect class="cls-4" x="42.12" y="54.29" width="31.22" height="1.42" transform="translate(115.79 109.65) rotate(179.65)"/><rect class="cls-4" x="42.19" y="65.91" width="13.73" height="1.42" transform="translate(98.51 132.95) rotate(179.65)"/><rect class="cls-4" x="59.7" y="65.81" width="13.73" height="8.24" transform="translate(133.55 139.45) rotate(179.65)"/><rect class="cls-4" x="42.21" y="69.32" width="13.73" height="1.42" transform="translate(98.57 139.76) rotate(179.65)"/><rect class="cls-4" x="42.23" y="72.73" width="13.73" height="1.42" transform="translate(98.63 146.59) rotate(179.65)"/><rect class="cls-4" x="42.25" y="75.93" width="31.22" height="1.42" transform="translate(116.18 152.94) rotate(179.65)"/><rect class="cls-4" x="42.14" y="57.99" width="31.22" height="1.42" transform="translate(115.86 117.05) rotate(179.65)"/><rect class="cls-4" x="42.16" y="61.87" width="31.22" height="1.42" transform="translate(115.93 124.82) rotate(179.65)"/><rect class="cls-4" x="48.84" y="36.92" width="24.19" height="4.33" transform="matrix(-1, 0.01, -0.01, -1, 122.11, 77.8)"/><polygon class="cls-5" points="36.1 33.05 43.84 33.01 43.8 25.61 36.1 33.05"/></svg>