<svg id="Layer_1" data-name="Layer 1" xmlns="http://www.w3.org/2000/svg" viewBox="0 0 130 48.77"><defs><style>.cls-1{fill:#fff;}</style></defs><title>logo</title><path class="cls-1" d="M11.46,41.21l.32-23.63,22.59-1.53L47.78,33.4,40.23,1.92a2.5,2.5,0,0,0-3-1.85L1.92,8.54a2.51,2.51,0,0,0-1.85,3L8.54,46.85a2.51,2.51,0,0,0,3,1.85L46.1,40.4Z" transform="translate(0 0)"/><path class="cls-1" d="M72.11,22.48a1.42,1.42,0,0,1-.15.58,6.89,6.89,0,0,1-2.78,2.78,7.85,7.85,0,0,1-3.86,1,7.66,7.66,0,0,1-7.67-7.68,7.68,7.68,0,0,1,7.67-7.66,7.31,7.31,0,0,1,2.36.42,9.31,9.31,0,0,1,2.74,1.54c1.12.88,1.68,1.7,1.68,2.48a1,1,0,0,1-.54.89l-10.34,6a5.21,5.21,0,0,0,4.1,1.86,5.05,5.05,0,0,0,4.13-1.89c.13-.19.34-.47.62-.85a1.17,1.17,0,0,1,.9-.56,1.15,1.15,0,0,1,.8.31A1,1,0,0,1,72.11,22.48Zm-2.7-6.89a5.45,5.45,0,0,0-8-.25,5.31,5.31,0,0,0-1.61,3.87A5.49,5.49,0,0,0,60.12,21Z" transform="translate(0 0)"/><path class="cls-1" d="M82.35,19.21a1,1,0,0,1-1.1,1.1H74.68a1,1,0,0,1-1.1-1.1,1,1,0,0,1,1.1-1.08h6.57A1,1,0,0,1,82.35,19.21Z" transform="translate(0 0)"/><path class="cls-1" d="M98.39,20.31a6.56,6.56,0,0,1-6.57,6.57H86.35a1.08,1.08,0,0,1-.77-.33,1.06,1.06,0,0,1-.33-.77V6.07A1.13,1.13,0,0,1,86.35,5h5.47a5.5,5.5,0,0,1,5.49,5.47,5.23,5.23,0,0,1-2,4.27A6.2,6.2,0,0,1,98.39,20.31Zm-3.27-9.86a3.29,3.29,0,0,0-3.29-3.29H87.44v6.58h4.39a3.31,3.31,0,0,0,3.29-3.29Zm1.09,9.86a4.4,4.4,0,0,0-4.39-4.38H87.44V24.7h4.38a4.4,4.4,0,0,0,4.39-4.39Z" transform="translate(0 0)"/><path class="cls-1" d="M115.2,19.21a7.67,7.67,0,1,1-15.34,0,7.67,7.67,0,0,1,15.34,0Zm-2.19,0a5.49,5.49,0,1,0-9.36,3.87A5.49,5.49,0,0,0,113,19.21Z" transform="translate(0 0)"/><path class="cls-1" d="M129.83,25.79a1.06,1.06,0,0,1-.35.77,1.13,1.13,0,0,1-.78.32,1.06,1.06,0,0,1-.82-.39l-4.64-5.56-4.62,5.56a1.05,1.05,0,0,1-.81.39,1.19,1.19,0,0,1-.81-.32,1,1,0,0,1-.06-1.47l4.87-5.88-4.88-5.86a1.08,1.08,0,0,1-.29-.71,1.06,1.06,0,0,1,.35-.77,1.13,1.13,0,0,1,.8-.33,1,1,0,0,1,.81.41l4.66,5.56L127.85,12a1.07,1.07,0,0,1,.83-.41,1.12,1.12,0,0,1,.79.33,1.05,1.05,0,0,1,.34.78,1.17,1.17,0,0,1-.26.71l-4.89,5.86,4.9,5.87A1.08,1.08,0,0,1,129.83,25.79Z" transform="translate(0 0)"/><path class="cls-1" d="M64,44.88a.43.43,0,0,1-.48.49H58.59a.49.49,0,0,1-.35-.15.46.46,0,0,1-.15-.34V36a.51.51,0,0,1,.5-.5h4.93a.49.49,0,0,1,0,1H59.08V40h3.45a.43.43,0,0,1,.49.49.44.44,0,0,1-.49.5H59.08v3.45h4.44A.43.43,0,0,1,64,44.88Z" transform="translate(0 0)"/><path class="cls-1" d="M73.6,44.87a.44.44,0,0,1-.5.5.58.58,0,0,1-.44-.26l-6-7.67v7.43a.5.5,0,1,1-1,0V36a.45.45,0,0,1,.51-.5.57.57,0,0,1,.43.27l6,7.67V36a.49.49,0,1,1,1,0Z" transform="translate(0 0)"/><path class="cls-1" d="M82.2,36a.43.43,0,0,1-.49.48H79.24v8.39a.49.49,0,0,1-1,0V36.49H75.8c-.33,0-.5-.16-.5-.48a.44.44,0,0,1,.5-.5h5.91C82,35.51,82.2,35.67,82.2,36Z" transform="translate(0 0)"/><path class="cls-1" d="M89.5,44.88a.43.43,0,0,1-.49.49H84.08a.49.49,0,0,1-.35-.15.46.46,0,0,1-.15-.34V36a.53.53,0,0,1,.15-.35.49.49,0,0,1,.35-.15H89a.49.49,0,0,1,0,1H84.57V40H88a.44.44,0,0,1,.5.49.44.44,0,0,1-.5.5H84.57v3.45H89A.43.43,0,0,1,89.5,44.88Z" transform="translate(0 0)"/><path class="cls-1" d="M97.12,44.87a.51.51,0,0,1-.5.5.48.48,0,0,1-.34-.15l-3.87-3.87a.63.63,0,0,1-.22-.32v3.85a.43.43,0,0,1-.49.49.44.44,0,0,1-.49-.5V36a.43.43,0,0,1,.48-.49h2.47a3,3,0,0,1,0,5.92h-.29l3.1,3.1A.51.51,0,0,1,97.12,44.87Zm-1-6.4a2,2,0,0,0-2-2h-2v4.36c0-.27.24-.4.59-.4h1.38a2,2,0,0,0,2-2Z" transform="translate(0 0)"/><path class="cls-1" d="M98.84,44.88V36a.49.49,0,0,1,.15-.35.46.46,0,0,1,.34-.15h2.46a3,3,0,1,1,0,5.92h-1.48a.43.43,0,0,1-.49-.49v3.94a.49.49,0,1,1-1,0Zm1-3.94a.43.43,0,0,1,.49-.49h1.48a2,2,0,0,0,2-2,2,2,0,0,0-2-2h-2v4.45Z" transform="translate(0 0)"/><path class="cls-1" d="M112.37,44.87a.49.49,0,0,1-.15.35.46.46,0,0,1-.34.15.5.5,0,0,1-.35-.15l-3.87-3.87a.63.63,0,0,1-.22-.32v3.85a.43.43,0,0,1-.49.49.44.44,0,0,1-.49-.5V36a.43.43,0,0,1,.49-.49h2.47a2.86,2.86,0,0,1,2.09.87,3,3,0,0,1,0,4.18,2.82,2.82,0,0,1-2.09.87h-.28l3.09,3.1A.47.47,0,0,1,112.37,44.87Zm-1-6.4a1.87,1.87,0,0,0-.58-1.39,1.9,1.9,0,0,0-1.4-.59h-2v4.36c0-.27.24-.4.59-.4h1.38a1.93,1.93,0,0,0,1.4-.58A1.89,1.89,0,0,0,111.39,38.47Z" transform="translate(0 0)"/><path class="cls-1" d="M115.08,44.88a.49.49,0,1,1-1,0V36a.49.49,0,1,1,1,0Z" transform="translate(0 0)"/><path class="cls-1" d="M122.38,42.41a3,3,0,0,1-3,3,2.94,2.94,0,0,1-1.48-.4,2.67,2.67,0,0,1-1.08-1.08.56.56,0,0,1-.08-.25.48.48,0,0,1,.16-.35.49.49,0,0,1,.77.11c.05.07.13.19.24.33a1.85,1.85,0,0,0,1.47.66,2,2,0,0,0,2-2,2,2,0,0,0-2-2,2.37,2.37,0,0,1-1.74-.72,2.47,2.47,0,0,1,0-3.49,2.37,2.37,0,0,1,1.74-.72,2.53,2.53,0,0,1,1.24.33,2.24,2.24,0,0,1,.89.89.6.6,0,0,1,.07.27.46.46,0,0,1-.15.34.56.56,0,0,1-.36.14c-.11,0-.32-.16-.62-.49a1.41,1.41,0,0,0-1.07-.5,1.49,1.49,0,0,0,0,3,2.86,2.86,0,0,1,2.09.87A2.82,2.82,0,0,1,122.38,42.41Z" transform="translate(0 0)"/><path class="cls-1" d="M130,44.88a.43.43,0,0,1-.49.49h-4.93a.5.5,0,0,1-.35-.15.49.49,0,0,1-.14-.34V36a.52.52,0,0,1,.14-.35.5.5,0,0,1,.35-.15h4.93a.49.49,0,0,1,0,1h-4.44V40h3.45a.44.44,0,0,1,.5.49.44.44,0,0,1-.5.5h-3.45v3.45h4.44A.43.43,0,0,1,130,44.88Z" transform="translate(0 0)"/></svg>